<svg width="19" height="19" viewBox="0 0 19 19" fill="none" xmlns="http://www.w3.org/2000/svg">
<path d="M6.40835 0.0190697C5.48989 0.084383 4.76527 0.26696 4.00835 0.626179C3.55297 0.842897 3.1345 1.10415 2.76989 1.40399C2.55912 1.57618 1.9022 2.17141 1.71296 2.36141C0.889887 3.18821 0.329887 4.24657 0.109887 5.39102C-0.00857455 6.01001 -0.0254976 6.69579 0.0621947 7.32813C0.316041 9.16579 1.39912 10.8134 3.03143 11.8451C3.36066 12.0529 3.8022 12.2756 4.1622 12.4166C5.54835 12.9584 7.11451 13.0177 8.50835 12.5813C9.02374 12.4195 9.5222 12.1895 9.97143 11.9074L10.1191 11.8139L11.3484 13.0192C16.9453 18.5025 17.3084 18.8558 17.3868 18.9018C17.5268 18.982 17.593 18.9998 17.7622 18.9998C17.9068 19.0013 17.9237 18.9968 18.0314 18.9478C18.1514 18.8944 18.1653 18.884 18.5714 18.5188C18.8422 18.2769 18.8745 18.2427 18.9222 18.1522C19.036 17.937 19.0191 17.6713 18.8807 17.4694C18.856 17.4352 17.4007 15.9998 15.6453 14.2795C13.8899 12.5606 12.2899 10.9901 12.0884 10.7927L11.7207 10.432L11.8268 10.3162C12.416 9.66899 12.8745 8.83626 13.1176 7.9768C13.436 6.84274 13.4037 5.60477 13.0284 4.47813C12.4745 2.81563 11.2422 1.43368 9.62374 0.663288C8.92066 0.329304 8.23451 0.134851 7.43143 0.0457878C7.24681 0.0250072 6.56835 0.00719452 6.40835 0.0190697ZM6.59604 1.85079C7.60374 1.93094 8.50681 2.25899 9.29912 2.83196C10.5576 3.74485 11.3222 5.11344 11.3976 6.58594C11.456 7.72891 11.1237 8.79321 10.4314 9.68532C10.2191 9.95993 10.0807 10.0876 9.81143 10.2598C9.15604 10.6769 8.42066 10.9337 7.64066 11.0168C7.2422 11.0598 6.65143 11.0406 6.23912 10.9723C4.19143 10.6309 2.51143 9.07673 2.0545 7.09954C1.96373 6.70173 1.94835 6.55923 1.94835 6.04415C1.94835 5.62555 1.95296 5.54391 1.9822 5.35837C2.12066 4.50782 2.44066 3.77454 2.95143 3.14516C3.14681 2.90321 3.21758 2.83344 3.39297 2.71321C4.31758 2.07493 5.47604 1.76321 6.59604 1.85079Z" fill="black" fill-opacity="0.5"/>
</svg>
